<svg xmlns="http://www.w3.org/2000/svg" width="30" height="30" viewBox="0 0 30 30" fill="none">
    <path d="M19.4998 30C19.8976 30 20.2791 29.842 20.5604 29.5607C20.8417 29.2794 20.9998 28.8978 20.9998 28.5C20.9998 28.1022 20.8417 27.7206 20.5604 27.4393C20.2791 27.158 19.8976 27 19.4998 27H6.99992C5.93907 27 4.92166 26.5786 4.17153 25.8284C3.42139 25.0783 2.99997 24.0609 2.99997 23V7C2.99997 5.93913 3.42139 4.92172 4.17153 4.17157C4.92166 3.42143 5.93907 3 6.99992 3H19.4998C19.8976 3 20.2791 2.84196 20.5604 2.56066C20.8417 2.27936 20.9998 1.89782 20.9998 1.5C20.9998 1.10218 20.8417 0.720644 20.5604 0.43934C20.2791 0.158035 19.8976 0 19.4998 0H6.99992C5.14343 0 3.36297 0.737498 2.05023 2.05025C0.73749 3.36301 0 5.14348 0 7V23C0 24.8565 0.73749 26.637 2.05023 27.9497C3.36297 29.2625 5.14343 30 6.99992 30H19.4998ZM21.4818 7.398C21.6265 7.26428 21.7961 7.16039 21.9809 7.09224C22.1658 7.02409 22.3623 6.99303 22.5592 7.00083C22.756 7.00863 22.9494 7.05514 23.1283 7.1377C23.3072 7.22026 23.4681 7.33725 23.6017 7.482L29.6017 13.982C29.8578 14.2591 30 14.6226 30 15C30 15.3774 29.8578 15.7409 29.6017 16.018L23.6017 22.518C23.3315 22.81 22.9563 22.9827 22.5587 22.9981C22.1612 23.0134 21.7738 22.8703 21.4818 22.6C21.1898 22.3297 21.0171 21.9546 21.0017 21.557C20.9863 21.1594 21.1295 20.772 21.3998 20.48L25.0757 16.498H9.4999C9.10207 16.498 8.72055 16.34 8.43925 16.0587C8.15794 15.7774 7.99991 15.3958 7.99991 14.998C7.99991 14.6002 8.15794 14.2186 8.43925 13.9373C8.72055 13.656 9.10207 13.498 9.4999 13.498H25.0737L21.3978 9.516C21.264 9.3713 21.1602 9.20167 21.092 9.01681C21.0239 8.83194 20.9928 8.63547 21.0006 8.4386C21.0084 8.24173 21.0549 8.04833 21.1375 7.86943C21.22 7.69054 21.337 7.53167 21.4818 7.398Z" fill="black"/>
</svg>