<svg xmlns="http://www.w3.org/2000/svg" width="30" height="30" viewBox="0 0 30 30" fill="none">
    <path d="M27.1334 15.8166V14.1727L29.2523 12.3675C29.6428 12.0324 29.8992 11.5735 29.9759 11.0722C30.0526 10.5708 29.9449 10.0591 29.6716 9.62765L27.0672 5.32977C26.8737 5.00341 26.5954 4.73234 26.2603 4.54375C25.9252 4.35516 25.5451 4.25568 25.1581 4.2553C24.9182 4.25351 24.6796 4.2898 24.4518 4.36274L21.7701 5.24381C21.3071 4.94426 20.8242 4.67504 20.3245 4.43796L19.7616 1.73029C19.6607 1.23561 19.3843 0.791249 18.9808 0.474991C18.5773 0.158733 18.0724 -0.00926858 17.5545 0.000394794H12.3899C11.872 -0.00926858 11.3671 0.158733 10.9636 0.474991C10.5601 0.791249 10.2837 1.23561 10.1827 1.73029L9.61992 4.43796C9.11663 4.67499 8.62999 4.94419 8.16322 5.24381L5.53675 4.31977C5.30643 4.26134 5.06793 4.23957 4.83047 4.2553C4.44342 4.25568 4.06328 4.35516 3.72819 4.54375C3.3931 4.73234 3.11483 5.00341 2.92131 5.32977L0.316906 9.62765C0.0593204 10.0585 -0.0363973 10.5631 0.0461463 11.0552C0.12869 11.5472 0.384359 11.9959 0.769366 12.3246L2.8551 14.1834V15.8273L0.769366 17.6325C0.373484 17.9634 0.110822 18.4202 0.027992 18.9218C-0.0548377 19.4233 0.047522 19.9373 0.316906 20.3724L2.92131 24.6702C3.11483 24.9966 3.3931 25.2677 3.72819 25.4562C4.06328 25.6448 4.44342 25.7443 4.83047 25.7447C5.07033 25.7465 5.30888 25.7102 5.53675 25.6373L8.2184 24.7562C8.68139 25.0557 9.16434 25.325 9.66407 25.562L10.2269 28.2697C10.3278 28.7644 10.6042 29.2088 11.0077 29.525C11.4112 29.8413 11.9161 30.0093 12.434 29.9996H17.6428C18.1607 30.0093 18.6656 29.8413 19.0691 29.525C19.4726 29.2088 19.749 28.7644 19.8499 28.2697L20.4127 25.562C20.916 25.325 21.4027 25.0558 21.8694 24.7562L24.5401 25.6373C24.7679 25.7102 25.0065 25.7465 25.2463 25.7447C25.6334 25.7443 26.0135 25.6448 26.3486 25.4562C26.6837 25.2677 26.962 24.9966 27.1555 24.6702L29.6716 20.3724C29.9292 19.9415 30.0249 19.4369 29.9424 18.9448C29.8598 18.4528 29.6042 18.0041 29.2192 17.6754L27.1334 15.8166ZM25.1581 23.5958L21.3728 22.3494C20.4868 23.0801 19.4741 23.6514 18.3822 24.0363L17.5987 27.8936H12.3899L11.6063 24.0793C10.5231 23.6834 9.51588 23.1132 8.62672 22.3924L4.83047 23.5958L2.22607 19.2979L5.22775 16.7192C5.0237 15.6069 5.0237 14.4683 5.22775 13.3561L2.22607 10.7021L4.83047 6.40424L8.61568 7.65062C9.50177 6.91987 10.5145 6.34864 11.6063 5.96371L12.3899 2.10636H17.5987L18.3822 5.92073C19.4654 6.31659 20.4726 6.88683 21.3618 7.60764L25.1581 6.40424L27.7625 10.7021L24.7608 13.2808C24.9648 14.3931 24.9648 15.5317 24.7608 16.6439L27.7625 19.2979L25.1581 23.5958Z" fill="black"/>
    <path d="M14.9944 21.4464C13.6848 21.4464 12.4047 21.0683 11.3158 20.3599C10.2269 19.6515 9.37823 18.6447 8.87707 17.4666C8.37592 16.2886 8.24479 14.9924 8.50028 13.7418C8.75576 12.4913 9.38639 11.3426 10.3124 10.441C11.2384 9.53936 12.4182 8.92536 13.7026 8.67661C14.9871 8.42786 16.3184 8.55553 17.5283 9.04347C18.7382 9.53142 19.7723 10.3577 20.4999 11.4179C21.2274 12.4781 21.6158 13.7245 21.6158 14.9996C21.6246 15.8486 21.4594 16.6908 21.1298 17.4768C20.8002 18.2629 20.3128 18.977 19.6962 19.5774C19.0795 20.1777 18.3461 20.6523 17.5387 20.9732C16.7314 21.2941 15.8664 21.455 14.9944 21.4464ZM14.9944 10.7017C14.411 10.6884 13.8309 10.7906 13.2892 11.0019C12.7475 11.2132 12.2555 11.5293 11.8428 11.931C11.4302 12.3328 11.1055 12.8119 10.8885 13.3393C10.6715 13.8667 10.5666 14.4315 10.5802 14.9996C10.5666 15.5676 10.6715 16.1324 10.8885 16.6598C11.1055 17.1872 11.4302 17.6663 11.8428 18.0681C12.2555 18.4698 12.7475 18.7859 13.2892 18.9972C13.8309 19.2085 14.411 19.3107 14.9944 19.2974C15.5778 19.3107 16.1579 19.2085 16.6996 18.9972C17.2413 18.7859 17.7334 18.4698 18.146 18.0681C18.5587 17.6663 18.8833 17.1872 19.1003 16.6598C19.3174 16.1324 19.4222 15.5676 19.4087 14.9996C19.4222 14.4315 19.3174 13.8667 19.1003 13.3393C18.8833 12.8119 18.5587 12.3328 18.146 11.931C17.7334 11.5293 17.2413 11.2132 16.6996 11.0019C16.1579 10.7906 15.5778 10.6884 14.9944 10.7017Z" fill="black"/>
</svg>