<svg width="4" height="20" viewBox="0 0 4 20" fill="none" xmlns="http://www.w3.org/2000/svg">
    <path d="M2 3.46875C1.43046 3.46875 0.96875 3.00704 0.96875 2.4375C0.96875 1.86796 1.43046 1.40625 2 1.40625C2.56954 1.40625 3.03125 1.86796 3.03125 2.4375C3.03125 3.00704 2.56954 3.46875 2 3.46875Z" fill="#7A7A7A" stroke="#7A7A7A" stroke-width="1.5" stroke-linecap="round" stroke-linejoin="round"/>
    <path d="M2 11.0312C1.43046 11.0312 0.96875 10.5695 0.96875 10C0.96875 9.43046 1.43046 8.96875 2 8.96875C2.56954 8.96875 3.03125 9.43046 3.03125 10C3.03125 10.5695 2.56954 11.0312 2 11.0312Z" fill="#7A7A7A" stroke="#7A7A7A" stroke-width="1.5" stroke-linecap="round" stroke-linejoin="round"/>
    <path d="M2 18.5938C1.43046 18.5938 0.96875 18.132 0.96875 17.5625C0.96875 16.993 1.43046 16.5312 2 16.5312C2.56954 16.5312 3.03125 16.993 3.03125 17.5625C3.03125 18.132 2.56954 18.5938 2 18.5938Z" fill="#7A7A7A" stroke="#7A7A7A" stroke-width="1.5" stroke-linecap="round" stroke-linejoin="round"/>
</svg>
