<svg xmlns="http://www.w3.org/2000/svg" width="32" height="30" viewBox="0 0 32 30" fill="none">
    <path d="M10.6667 2.14286C11.7215 2.14286 12.7526 2.45705 13.6297 3.0457C14.5068 3.63435 15.1904 4.47102 15.594 5.44991C15.9977 6.4288 16.1033 7.50594 15.8975 8.54513C15.6917 9.58431 15.1838 10.5389 14.4379 11.2881C13.692 12.0373 12.7417 12.5475 11.7071 12.7542C10.6726 12.9609 9.60023 12.8548 8.62569 12.4494C7.65115 12.0439 6.8182 11.3572 6.23216 10.4763C5.64613 9.59529 5.33333 8.55954 5.33333 7.5C5.33333 6.0792 5.89524 4.71659 6.89543 3.71193C7.89562 2.70727 9.25218 2.14286 10.6667 2.14286ZM10.6667 0C9.1899 0 7.7463 0.439867 6.51841 1.26398C5.29052 2.08809 4.3335 3.25943 3.76837 4.62987C3.20323 6.00032 3.05537 7.50832 3.34347 8.96318C3.63157 10.418 4.3427 11.7544 5.38694 12.8033C6.43117 13.8522 7.7616 14.5665 9.20999 14.8559C10.6584 15.1453 12.1597 14.9968 13.524 14.4291C14.8884 13.8614 16.0545 12.9001 16.875 11.6668C17.6954 10.4334 18.1333 8.98336 18.1333 7.5C18.1333 5.51088 17.3467 3.60322 15.9464 2.1967C14.5461 0.790176 12.647 0 10.6667 0ZM21.3333 30H19.2V24.6429C19.2 23.2221 18.6381 21.8594 17.6379 20.8548C16.6377 19.8501 15.2812 19.2857 13.8667 19.2857H7.46667C6.05218 19.2857 4.69562 19.8501 3.69543 20.8548C2.69524 21.8594 2.13333 23.2221 2.13333 24.6429V30H0V24.6429C0 22.6537 0.786664 20.7461 2.18694 19.3396C3.58721 17.933 5.48638 17.1429 7.46667 17.1429H13.8667C15.847 17.1429 17.7461 17.933 19.1464 19.3396C20.5467 20.7461 21.3333 22.6537 21.3333 24.6429V30ZM21.3333 2.14286H32V4.28571H21.3333V2.14286ZM21.3333 7.5H32V9.64286H21.3333V7.5ZM21.3333 12.8571H28.8V15H21.3333V12.8571Z" fill="black"/>
</svg>