<?xml version="1.0" encoding="utf-8"?>
<svg viewBox="608.3466 -276.8206 627.9198 813.5607" width="627.9198" height="813.5607" xmlns="http://www.w3.org/2000/svg">
  <g stroke-width="2.00" fill="none" stroke-linecap="butt" transform="matrix(1, 0, 0, 1, 409.1447143554688, -364.8399353027344)" style="visibility: hidden;">
    <path stroke="#bfd9ec" vector-effect="non-scaling-stroke" d=" M 281.56 527.07 L 281.96 541.77 A 0.90 0.89 89.0 0 0 282.85 542.64 L 299.64 542.75 Q 300.16 542.75 300.15 542.24 L 300.08 527.37"/>
    <path stroke="#87a0b5" vector-effect="non-scaling-stroke" d=" M 300.08 527.37 Q 300.24 507.63 300.60 494.50 C 301.55 459.77 312.92 425.02 330.27 394.98 Q 332.04 391.90 333.71 389.86 Q 334.69 388.64 334.75 390.21 L 336.15 427.86"/>
    <path stroke="#eef6fd" vector-effect="non-scaling-stroke" d=" M 336.15 427.86 Q 328.46 433.81 324.11 440.87 C 312.96 458.92 312.44 483.70 322.04 502.48 Q 330.64 519.30 347.32 528.05"/>
    <path stroke="#87a0b5" vector-effect="non-scaling-stroke" d=" M 347.32 528.05 Q 354.32 574.13 368.02 618.81 C 371.79 631.10 376.67 643.78 381.40 656.13 Q 381.61 656.68 381.88 657.07 A 0.36 0.36 0.0 0 0 382.53 656.90 C 386.37 620.49 387.63 586.95 387.75 547.95"/>
    <path stroke="#eef6fd" vector-effect="non-scaling-stroke" d=" M 387.75 547.95 Q 391.64 552.23 393.67 558.08 Q 394.50 560.48 398.07 567.10 C 408.07 585.67 422.54 602.19 439.00 615.52"/>
    <path stroke="#bfd9ec" vector-effect="non-scaling-stroke" d=" M 439.00 615.52 Q 438.57 615.65 438.38 615.76 Q 438.26 615.84 438.25 616.30 Q 438.08 635.04 438.21 652.95"/>
    <path stroke="#87a0b5" vector-effect="non-scaling-stroke" d=" M 438.21 652.95 Q 438.35 664.38 438.00 675.01 C 437.08 702.86 422.63 722.25 399.80 736.72 A 0.76 0.75 -36.0 0 1 398.82 736.57 Q 394.47 731.42 390.11 726.39 C 385.83 721.44 376.39 719.71 373.04 726.53 C 370.95 730.78 372.93 733.90 375.99 737.38 Q 389.03 752.17 401.32 763.42 Q 426.98 786.89 460.01 798.86 C 479.70 806.00 501.63 808.23 522.50 807.31 C 563.43 805.50 602.58 788.29 631.28 759.02 Q 640.58 749.54 649.17 739.41 C 652.68 735.28 656.30 729.90 652.05 724.94 C 647.88 720.06 640.21 722.01 636.43 726.71 Q 633.09 730.86 628.99 735.89 Q 627.99 737.13 626.70 736.20 Q 624.24 734.43 620.92 732.08 C 601.51 718.33 589.10 698.11 588.72 673.49 Q 588.57 663.86 588.71 654.20 Q 588.72 653.91 588.54 653.68 Q 588.45 653.57 588.36 653.42"/>
    <path stroke="#bfd9ec" vector-effect="non-scaling-stroke" d=" M 588.36 653.42 L 588.84 616.19"/>
    <path stroke="#eef6fd" vector-effect="non-scaling-stroke" d=" M 588.84 616.19 Q 590.96 614.00 593.81 611.73 C 600.63 606.29 606.90 599.18 611.99 593.01 Q 624.92 577.35 632.46 557.48 Q 633.17 555.61 633.46 550.54 C 633.57 548.71 632.98 547.08 632.13 545.62 Q 625.48 534.29 618.26 523.32 C 604.03 501.69 592.74 482.43 579.75 456.02 C 577.34 451.12 574.86 444.92 572.06 439.00 Q 570.83 436.39 571.37 433.28 Q 571.46 432.79 571.23 432.34 Q 570.09 430.08 570.08 427.79"/>
    <path stroke="#87a0b5" vector-effect="non-scaling-stroke" d=" M 570.08 427.79 Q 577.11 441.93 579.13 445.37 Q 603.27 486.30 636.39 520.37 Q 637.34 521.35 637.27 523.25 C 636.31 552.47 638.57 581.56 640.47 610.74 Q 641.97 633.67 644.62 656.49 Q 644.66 656.85 644.81 657.05 Q 645.06 657.38 645.21 657.00 C 655.38 632.01 663.44 606.49 669.34 580.17 Q 675.39 553.12 680.21 525.65"/>
    <path stroke="#eef6fd" vector-effect="non-scaling-stroke" d=" M 680.21 525.65 Q 681.11 526.29 681.69 525.95 Q 698.62 515.92 705.98 498.51 C 710.34 488.20 711.53 474.02 710.06 462.98 Q 707.31 442.29 690.10 427.06"/>
    <path stroke="#87a0b5" vector-effect="non-scaling-stroke" d=" M 690.10 427.06 Q 691.99 398.78 693.52 368.75 C 694.52 349.03 694.18 329.70 689.62 310.42 C 681.05 274.15 663.25 242.90 635.56 217.71 Q 628.08 210.90 620.14 204.62 Q 618.53 203.35 618.56 201.25 Q 618.70 193.68 618.59 186.09 Q 618.49 179.69 616.93 176.66 C 614.52 171.98 609.77 169.51 604.84 167.96 Q 604.34 167.80 604.58 167.32 L 617.02 143.07 Q 617.37 142.39 616.67 142.06 Q 591.78 130.19 564.38 126.98 Q 563.83 126.91 563.76 126.37 L 559.97 95.08 A 1.35 1.35 0.0 0 0 558.30 93.93 Q 534.70 99.91 512.30 109.41 Q 511.83 109.61 511.41 109.34 Q 498.56 101.44 478.56 90.41 Q 475.67 88.82 473.38 88.05 A 0.55 0.55 0.0 0 0 472.66 88.46 Q 469.21 105.32 467.71 122.47 Q 467.67 122.92 467.22 122.96 C 446.87 124.73 428.64 130.63 410.12 138.99 Q 409.66 139.20 409.85 139.67 L 422.16 170.11 A 0.45 0.44 -15.2 0 1 421.81 170.72 C 414.66 171.70 408.91 175.64 408.65 183.50 Q 408.32 193.50 408.79 203.43 A 0.76 0.75 70.7 0 1 408.48 204.08 C 389.64 217.89 373.11 234.27 360.73 254.21 Q 337.54 291.56 333.92 335.51 Q 332.95 347.37 333.01 358.90 A 2.73 2.69 -24.4 0 1 332.30 360.75 Q 321.31 372.79 312.91 387.13 Q 279.43 444.34 281.16 511.00 Q 281.36 518.90 281.56 527.07"/>
    <path stroke="#99a9b7" vector-effect="non-scaling-stroke" d=" M 690.10 427.06 C 687.28 460.27 685.50 492.98 680.21 525.65"/>
    <path stroke="#99a9b7" vector-effect="non-scaling-stroke" d=" M 570.08 427.79 L 558.27 398.91 Q 558.08 398.44 557.57 398.44 L 377.69 398.51 Q 377.17 398.51 377.19 399.03 C 379.15 447.26 379.56 495.77 387.50 543.50 Q 387.72 544.82 387.75 547.95"/>
    <path stroke="#99a9b7" vector-effect="non-scaling-stroke" d=" M 347.32 528.05 Q 340.25 478.77 336.15 427.86"/>
    <path stroke="#6a8ca6" vector-effect="non-scaling-stroke" d=" M 300.08 527.37 Q 290.90 526.34 281.56 527.07"/>
    <path stroke="#d1e2ee" vector-effect="non-scaling-stroke" d=" M 588.84 616.19 C 573.55 628.51 559.58 638.57 542.54 646.87 C 529.36 653.29 515.60 657.38 501.01 652.98 C 489.68 649.56 478.86 643.57 468.80 637.44 Q 456.25 629.79 439.00 615.52"/>
    <path stroke="#6a8ca6" vector-effect="non-scaling-stroke" d=" M 588.36 653.42 C 579.71 663.86 565.93 670.26 553.08 673.72 Q 508.83 685.66 465.49 670.97 Q 451.53 666.24 438.21 652.95"/>
    <path stroke="#eef6fd" vector-effect="non-scaling-stroke" d=" M 313.31 760.01 Q 313.47 759.33 312.74 758.97 Q 312.29 758.75 311.83 758.97 L 287.94 770.54"/>
    <path stroke="#bfe2f0" vector-effect="non-scaling-stroke" d=" M 287.94 770.54 Q 284.42 772.11 281.29 774.14 C 275.16 778.11 269.97 781.21 264.39 784.89 C 243.58 798.59 223.86 816.97 211.72 838.96 C 201.06 858.29 198.24 878.28 199.47 899.49 Q 199.59 901.61 202.00 901.57 Q 244.02 900.93 299.54 901.58 A 1.41 1.37 24.7 0 0 300.42 901.27 Q 300.75 901.00 300.76 900.88"/>
    <path stroke="#eef6fd" vector-effect="non-scaling-stroke" d=" M 300.76 900.88 L 325.29 901.02"/>
    <path stroke="#bfe2f0" vector-effect="non-scaling-stroke" d=" M 325.29 901.02 L 325.63 901.25 A 1.35 1.31 61.0 0 0 326.42 901.49 C 378.52 900.93 430.65 901.47 482.75 901.41 Q 591.58 901.31 700.41 901.33 Q 700.68 901.33 700.90 900.83"/>
    <path stroke="#eef6fd" vector-effect="non-scaling-stroke" d=" M 700.90 900.83 Q 701.36 901.24 702.33 901.04 Q 703.33 900.83 703.71 900.82 Q 714.53 900.35 724.94 901.30"/>
    <path stroke="#bfe2f0" vector-effect="non-scaling-stroke" d=" M 724.94 901.30 L 825.91 901.07 A 0.39 0.38 3.3 0 0 826.30 900.73 C 830.97 862.11 815.41 830.14 787.71 804.54 C 774.96 792.75 760.76 783.79 746.17 774.55 Q 742.60 772.28 739.12 771.66"/>
    <path stroke="#eef6fd" vector-effect="non-scaling-stroke" d=" M 739.12 771.66 Q 737.33 770.01 736.33 769.40 Q 725.75 762.94 714.16 758.77"/>
    <path stroke="#bfe2f0" vector-effect="non-scaling-stroke" d=" M 714.16 758.77 Q 713.49 758.25 712.57 757.56 Q 711.78 756.99 710.86 756.59 Q 694.30 749.51 677.76 742.95 A 2.39 2.38 31.0 0 0 675.05 743.62 C 664.33 756.28 653.64 769.25 641.46 780.47 Q 610.17 809.30 569.45 821.75 Q 556.05 825.85 552.52 826.60 C 512.65 835.06 469.12 829.74 432.00 811.96 C 401.15 797.19 375.50 773.56 353.49 745.01 C 352.34 743.53 351.05 741.51 348.77 742.55 C 337.39 747.75 325.77 752.39 314.38 757.61 Q 313.50 758.02 313.31 760.01"/>
    <path stroke="#d0ebf2" vector-effect="non-scaling-stroke" d=" M 714.16 758.77 Q 707.18 812.22 704.24 840.25 Q 701.34 867.88 700.90 900.83"/>
    <path stroke="#d0ebf2" vector-effect="non-scaling-stroke" d=" M 325.29 901.02 Q 324.73 880.17 323.73 859.50 C 322.58 835.45 318.97 811.59 316.57 787.67 C 315.68 778.74 314.29 769.25 313.31 760.01"/>
    <path stroke="#d0ebf2" vector-effect="non-scaling-stroke" d=" M 300.76 900.88 Q 300.69 869.20 297.73 843.00 Q 294.67 815.96 287.94 770.54"/>
    <path stroke="#d0ebf2" vector-effect="non-scaling-stroke" d=" M 739.12 771.66 C 732.05 814.47 725.32 857.88 724.94 901.30"/>
    <path stroke="#99a9b7" vector-effect="non-scaling-stroke" d=" M 404.96 380.98 L 464.49 381.02"/>
    <path stroke="#87a0b5" vector-effect="non-scaling-stroke" d=" M 464.49 381.02 L 553.01 380.99 A 0.37 0.37 0.0 0 0 553.37 380.53 L 541.29 334.24 A 0.81 0.81 0.0 0 0 539.85 333.96 L 536.47 338.46 A 0.74 0.74 0.0 0 1 535.28 338.45 C 525.91 325.40 504.85 330.99 506.69 348.04 C 507.62 356.68 516.74 364.71 525.52 359.81 C 530.08 357.27 531.88 351.35 529.23 346.81 C 527.55 343.93 523.86 341.51 520.51 342.33 C 516.94 343.19 515.11 350.83 520.91 350.64 C 522.33 350.60 522.93 349.77 523.96 348.95 A 1.40 1.39 65.8 0 1 526.20 349.80 C 527.03 354.47 521.69 356.51 518.02 355.64 C 503.42 352.20 513.75 328.92 528.85 337.66 C 537.17 342.48 540.12 352.53 533.99 360.24 C 528.49 367.18 522.36 367.09 512.78 366.90 Q 500.47 366.65 488.02 366.92 Q 486.54 366.96 487.25 365.65 Q 493.47 354.16 499.61 342.06 Q 503.62 334.15 506.62 331.23 Q 516.10 321.99 530.79 327.33 Q 532.80 328.07 533.73 329.60 A 1.00 0.99 -34.1 0 0 535.19 329.88 L 538.35 327.49 A 1.93 1.93 0.0 0 0 539.02 325.36 L 533.23 307.37 A 0.68 0.67 81.1 0 0 532.59 306.90 L 483.45 306.73"/>
    <path stroke="#99a9b7" vector-effect="non-scaling-stroke" d=" M 483.45 306.73 L 405.25 306.65"/>
    <path stroke="#87a0b5" vector-effect="non-scaling-stroke" d=" M 405.25 306.65 Q 392.06 305.65 385.56 318.25 Q 383.01 323.18 382.98 328.75 Q 382.90 340.63 382.90 352.51 C 382.91 361.36 382.72 366.71 387.07 372.94 Q 393.34 381.89 404.96 380.98"/>
    <path stroke="#eef6fd" vector-effect="non-scaling-stroke" d=" M 405.25 306.65 Q 404.31 315.01 404.49 323.79 C 404.79 338.29 404.72 352.75 404.68 367.25 Q 404.66 374.08 404.96 380.98"/>
    <path stroke="#eef6fd" vector-effect="non-scaling-stroke" d=" M 483.45 306.73 Q 481.88 313.03 480.09 319.12 Q 477.52 327.85 476.56 331.45 C 473.48 342.95 470.06 354.52 467.61 366.00 Q 466.03 373.43 464.49 381.02"/>
    <path stroke="#87a0b5" vector-effect="non-scaling-stroke" d=" M 496.73 360.86 A 0.34 0.34 0.0 0 0 497.07 361.34 L 505.98 360.79 A 0.34 0.34 0.0 0 0 506.25 360.28 L 501.28 352.06 A 0.34 0.34 0.0 0 0 500.67 352.10 L 496.73 360.86"/>
    <path stroke="#87a0b5" vector-effect="non-scaling-stroke" d=" M 396.2901 335.1246 A 4.50 4.25 79.5 0 0 399.6488 329.9255 A 4.50 4.25 79.5 0 0 394.6499 326.2754 A 4.50 4.25 79.5 0 0 391.2912 331.4745 A 4.50 4.25 79.5 0 0 396.2901 335.1246"/>
    <path stroke="#87a0b5" vector-effect="non-scaling-stroke" d=" M 399.73 359.67 A 4.32 4.32 0.0 0 0 395.41 355.35 A 4.32 4.32 0.0 0 0 391.09 359.67 A 4.32 4.32 0.0 0 0 395.41 363.99 A 4.32 4.32 0.0 0 0 399.73 359.67"/>
  </g>
  <path fill="#32536e" d="M 1099.245 62.22 C 1096.425 95.43 1094.645 128.14 1089.355 160.81 C 1086.142 179.124 1082.518 197.297 1078.485 215.33 C 1072.585 241.65 1064.525 267.17 1054.355 292.16 C 1054.255 292.414 1054.122 292.43 1053.955 292.21 C 1053.855 292.077 1053.792 291.89 1053.765 291.65 C 1051.998 276.437 1050.615 261.187 1049.615 245.9 C 1047.715 216.72 1045.455 187.63 1046.415 158.41 C 1046.462 157.144 1046.168 156.184 1045.535 155.53 C 1023.455 132.817 1004.368 107.817 988.275 80.53 C 986.928 78.237 983.912 72.377 979.225 62.95 L 967.415 34.07 C 967.288 33.757 967.055 33.6 966.715 33.6 L 786.835 33.67 C 786.488 33.67 786.322 33.844 786.335 34.19 C 788.295 82.42 788.705 130.93 796.645 178.66 C 796.792 179.54 796.875 181.024 796.895 183.11 C 796.775 222.11 795.515 255.65 791.675 292.06 C 791.644 292.336 791.327 292.474 791.104 292.31 C 791.073 292.288 791.047 292.261 791.025 292.23 C 790.845 291.97 790.685 291.657 790.545 291.29 C 785.815 278.94 780.935 266.26 777.165 253.97 C 768.032 224.184 761.132 193.93 756.465 163.21 C 751.752 130.357 748.028 96.96 745.295 63.02 L 743.895 25.37 C 743.855 24.324 743.508 24.207 742.855 25.02 C 741.742 26.38 740.595 28.087 739.415 30.14 C 722.065 60.18 710.695 94.93 709.745 129.66 C 709.505 138.414 709.332 149.37 709.225 162.53 C 703.105 161.844 696.932 161.744 690.705 162.23 C 690.572 156.784 690.438 151.427 690.305 146.16 C 689.152 101.72 699.735 60.43 722.055 22.29 C 727.655 12.73 734.118 3.937 741.445 -4.09 C 741.908 -4.598 742.162 -5.259 742.155 -5.94 C 742.115 -13.626 742.418 -21.423 743.065 -29.33 C 745.478 -58.63 754.415 -85.73 769.875 -110.63 C 782.255 -130.57 798.785 -146.95 817.625 -160.76 C 817.831 -160.908 817.948 -161.153 817.935 -161.41 C 817.622 -168.03 817.575 -174.673 817.795 -181.34 C 818.055 -189.2 823.805 -193.14 830.955 -194.12 C 831.246 -194.164 831.418 -194.465 831.305 -194.73 L 818.995 -225.17 C 818.868 -225.483 818.958 -225.71 819.265 -225.85 C 837.785 -234.21 856.015 -240.11 876.365 -241.88 C 876.665 -241.906 876.828 -242.07 876.855 -242.37 C 877.855 -253.803 879.505 -265.14 881.805 -276.38 C 881.871 -276.706 882.21 -276.899 882.525 -276.79 C 884.052 -276.276 885.778 -275.49 887.705 -274.43 C 901.038 -267.076 911.988 -260.766 920.555 -255.5 C 920.835 -255.32 921.132 -255.296 921.445 -255.43 C 936.378 -261.763 951.712 -266.923 967.445 -270.91 C 968.235 -271.108 969.019 -270.568 969.115 -269.76 L 972.905 -238.47 C 972.952 -238.11 973.158 -237.906 973.525 -237.86 C 991.792 -235.72 1009.222 -230.693 1025.815 -222.78 C 1026.282 -222.56 1026.398 -222.223 1026.165 -221.77 L 1013.725 -197.52 C 1013.565 -197.2 1013.652 -196.986 1013.985 -196.88 C 1018.915 -195.33 1023.665 -192.86 1026.075 -188.18 C 1027.115 -186.16 1027.668 -183.016 1027.735 -178.75 C 1027.808 -173.69 1027.798 -168.636 1027.705 -163.59 C 1027.685 -162.19 1028.212 -161.066 1029.285 -160.22 C 1034.578 -156.033 1039.718 -151.67 1044.705 -147.13 C 1072.395 -121.94 1090.195 -90.69 1098.765 -54.42 C 1103.325 -35.14 1103.665 -15.81 1102.665 3.91 C 1101.645 23.93 1100.505 43.367 1099.245 62.22 Z M 814.105 16.14 L 873.635 16.18 L 962.155 16.15 C 962.396 16.151 962.574 15.924 962.515 15.69 L 950.435 -30.6 C 950.283 -31.204 949.534 -31.418 949.086 -30.984 C 949.053 -30.952 949.022 -30.917 948.995 -30.88 L 945.615 -26.38 C 945.316 -25.982 944.718 -25.987 944.425 -26.39 C 935.055 -39.44 913.995 -33.85 915.835 -16.8 C 916.765 -8.16 925.885 -0.13 934.665 -5.03 C 939.225 -7.57 941.025 -13.49 938.375 -18.03 C 936.695 -20.91 933.005 -23.33 929.655 -22.51 C 926.085 -21.65 924.255 -14.01 930.055 -14.2 C 931.475 -14.24 932.075 -15.07 933.105 -15.89 C 933.927 -16.548 935.155 -16.082 935.345 -15.04 C 936.175 -10.37 930.835 -8.33 927.165 -9.2 C 912.565 -12.64 922.895 -35.92 937.995 -27.18 C 946.315 -22.36 949.265 -12.31 943.135 -4.6 C 937.635 2.34 931.505 2.25 921.925 2.06 C 913.718 1.894 905.465 1.9 897.165 2.08 C 896.178 2.107 895.922 1.684 896.395 0.81 C 900.542 -6.85 904.662 -14.713 908.755 -22.78 C 911.428 -28.053 913.765 -31.663 915.765 -33.61 C 922.085 -39.77 930.142 -41.07 939.935 -37.51 C 941.275 -37.016 942.255 -36.26 942.875 -35.24 C 943.176 -34.729 943.858 -34.598 944.335 -34.96 L 947.495 -37.35 C 948.148 -37.845 948.417 -38.699 948.165 -39.48 L 942.375 -57.47 C 942.284 -57.75 942.026 -57.94 941.735 -57.94 L 892.595 -58.11 L 814.395 -58.19 C 805.602 -58.856 799.038 -54.99 794.705 -46.59 C 793.005 -43.303 792.145 -39.803 792.125 -36.09 C 792.072 -28.17 792.045 -20.25 792.045 -12.33 C 792.055 -3.48 791.865 1.87 796.215 8.1 C 800.395 14.067 806.358 16.747 814.105 16.14 Z M 905.875 -3.98 C 905.766 -3.742 905.955 -3.476 906.215 -3.5 L 915.125 -4.05 C 915.376 -4.067 915.522 -4.342 915.395 -4.56 L 910.425 -12.78 C 910.295 -13.007 909.968 -13.008 909.836 -12.782 C 909.828 -12.769 909.821 -12.754 909.815 -12.74 L 905.875 -3.98 Z" transform="matrix(1, 0, 0, 1, 5.684341886080802e-14, 0)"/>
  <path fill="#dcecfb" d="M 814.395 -58.19 C 813.768 -52.616 813.515 -46.903 813.635 -41.05 C 813.935 -26.55 813.865 -12.09 813.825 2.41 C 813.812 6.964 813.905 11.54 814.105 16.14 C 806.358 16.747 800.395 14.067 796.215 8.1 C 791.865 1.87 792.055 -3.48 792.045 -12.33 C 792.045 -20.25 792.072 -28.17 792.125 -36.09 C 792.145 -39.803 793.005 -43.303 794.705 -46.59 C 799.038 -54.99 805.602 -58.856 814.395 -58.19 Z M 805.435 -29.715 C 807.743 -30.143 809.247 -32.47 808.794 -34.914 C 808.341 -37.358 806.103 -38.992 803.795 -38.564 C 801.487 -38.136 799.983 -35.809 800.436 -33.365 C 800.889 -30.921 803.127 -29.287 805.435 -29.715 Z M 808.875 -5.17 C 808.875 -7.555 806.941 -9.49 804.555 -9.49 C 802.169 -9.49 800.235 -7.555 800.235 -5.17 C 800.235 -2.784 802.169 -0.85 804.555 -0.85 C 806.941 -0.85 808.875 -2.784 808.875 -5.17 Z" transform="matrix(1, 0, 0, 1, 5.684341886080802e-14, 0)"/>
  <path fill="#ffffff" d="M 814.395 -58.19 L 892.595 -58.11 C 891.548 -53.91 890.428 -49.78 889.235 -45.72 C 887.522 -39.9 886.345 -35.79 885.705 -33.39 C 882.625 -21.89 879.205 -10.32 876.755 1.16 C 875.702 6.114 874.662 11.12 873.635 16.18 L 814.105 16.14 C 813.905 11.54 813.812 6.964 813.825 2.41 C 813.865 -12.09 813.935 -26.55 813.635 -41.05 C 813.515 -46.903 813.768 -52.616 814.395 -58.19 Z" transform="matrix(1, 0, 0, 1, 5.684341886080802e-14, 0)"/>
  <path fill="#dcecfb" d="M 892.595 -58.11 L 941.735 -57.94 C 942.026 -57.94 942.284 -57.75 942.375 -57.47 L 948.165 -39.48 C 948.417 -38.699 948.148 -37.845 947.495 -37.35 L 944.335 -34.96 C 943.858 -34.598 943.176 -34.729 942.875 -35.24 C 942.255 -36.26 941.275 -37.016 939.935 -37.51 C 930.142 -41.07 922.085 -39.77 915.765 -33.61 C 913.765 -31.663 911.428 -28.053 908.755 -22.78 C 904.662 -14.713 900.542 -6.85 896.395 0.81 C 895.922 1.684 896.178 2.107 897.165 2.08 C 905.465 1.9 913.718 1.894 921.925 2.06 C 931.505 2.25 937.635 2.34 943.135 -4.6 C 949.265 -12.31 946.315 -22.36 937.995 -27.18 C 922.895 -35.92 912.565 -12.64 927.165 -9.2 C 930.835 -8.33 936.175 -10.37 935.345 -15.04 C 935.155 -16.082 933.927 -16.548 933.105 -15.89 C 932.075 -15.07 931.475 -14.24 930.055 -14.2 C 924.255 -14.01 926.085 -21.65 929.655 -22.51 C 933.005 -23.33 936.695 -20.91 938.375 -18.03 C 941.025 -13.49 939.225 -7.57 934.665 -5.03 C 925.885 -0.13 916.765 -8.16 915.835 -16.8 C 913.995 -33.85 935.055 -39.44 944.425 -26.39 C 944.718 -25.987 945.316 -25.982 945.615 -26.38 L 948.995 -30.88 C 949.363 -31.383 950.138 -31.3 950.39 -30.73 C 950.409 -30.688 950.424 -30.644 950.435 -30.6 L 962.515 15.69 C 962.574 15.924 962.396 16.151 962.155 16.15 L 873.635 16.18 C 874.662 11.12 875.702 6.114 876.755 1.16 C 879.205 -10.32 882.625 -21.89 885.705 -33.39 C 886.345 -35.79 887.522 -39.9 889.235 -45.72 C 890.428 -49.78 891.548 -53.91 892.595 -58.11 Z" transform="matrix(1, 0, 0, 1, 5.684341886080802e-14, 0)"/>
  <ellipse fill="#32536e" transform="matrix(0.1822360157966614, 0.9832550287246705, -0.9832550287246705, 0.1822360157966614, 804.61474609375, -34.13994598388672)" rx="4.5" ry="4.25"/>
  <path fill="#dcecfb" d="M 905.875 -3.98 L 909.815 -12.74 C 909.914 -12.982 910.238 -13.026 910.399 -12.819 C 910.408 -12.807 910.417 -12.793 910.425 -12.78 L 915.395 -4.56 C 915.522 -4.342 915.376 -4.067 915.125 -4.05 L 906.215 -3.5 C 905.955 -3.476 905.766 -3.742 905.875 -3.98 Z" transform="matrix(1, 0, 0, 1, 5.684341886080802e-14, 0)"/>
  <circle fill="#32536e" cx="804.555" cy="-5.17" r="4.32" transform="matrix(1, 0, 0, 1, 5.684341886080802e-14, 0)"/>
  <path fill="#ffffff" d="M 979.225 62.95 C 979.232 64.477 979.615 65.994 980.375 67.5 C 980.528 67.8 980.575 68.114 980.515 68.44 C 980.155 70.514 980.385 72.42 981.205 74.16 C 984.005 80.08 986.485 86.28 988.895 91.18 C 1001.885 117.59 1013.175 136.85 1027.405 158.48 C 1032.218 165.794 1036.842 173.227 1041.275 180.78 C 1042.125 182.24 1042.715 183.87 1042.605 185.7 C 1042.412 189.08 1042.078 191.394 1041.605 192.64 C 1036.578 205.887 1029.755 217.73 1021.135 228.17 C 1016.045 234.34 1009.775 241.45 1002.955 246.89 C 1001.055 248.404 999.398 249.89 997.985 251.35 C 982.695 263.67 968.725 273.73 951.685 282.03 C 938.505 288.45 924.745 292.54 910.155 288.14 C 898.825 284.72 888.005 278.73 877.945 272.6 C 869.578 267.5 859.645 260.194 848.145 250.68 C 831.685 237.35 817.215 220.83 807.215 202.26 C 804.835 197.847 803.368 194.84 802.815 193.24 C 801.462 189.34 799.488 185.964 796.895 183.11 C 796.875 181.024 796.792 179.54 796.645 178.66 C 788.705 130.93 788.295 82.42 786.335 34.19 C 786.322 33.844 786.488 33.67 786.835 33.67 L 966.715 33.6 C 967.055 33.6 967.288 33.757 967.415 34.07 L 979.225 62.95 Z" transform="matrix(1, 0, 0, 1, 5.684341886080802e-14, 0)"/>
  <path fill="#ffffff" d="M 1099.245 62.22 C 1110.718 72.374 1117.372 84.347 1119.205 98.14 C 1120.675 109.18 1119.485 123.36 1115.125 133.67 C 1110.218 145.277 1102.122 154.424 1090.835 161.11 C 1090.448 161.337 1089.955 161.237 1089.355 160.81 C 1094.645 128.14 1096.425 95.43 1099.245 62.22 Z" transform="matrix(1, 0, 0, 1, 5.684341886080802e-14, 0)"/>
  <path fill="#ffffff" d="M 745.295 63.02 C 748.028 96.96 751.752 130.357 756.465 163.21 C 745.345 157.377 736.918 148.854 731.185 137.64 C 721.585 118.86 722.105 94.08 733.255 76.03 C 736.155 71.324 740.168 66.987 745.295 63.02 Z" transform="matrix(1, 0, 0, 1, 5.684341886080802e-14, 0)"/>
  <path fill="#a2c5dd" d="M 709.225 162.53 L 709.295 177.4 C 709.302 177.74 709.132 177.91 708.785 177.91 L 691.995 177.8 C 691.515 177.8 691.121 177.416 691.105 176.93 L 690.705 162.23 C 696.932 161.744 703.105 161.844 709.225 162.53 Z" transform="matrix(1, 0, 0, 1, 5.684341886080802e-14, 0)"/>
  <path fill="#a2c5dd" d="M 848.145 250.68 C 859.645 260.194 869.578 267.5 877.945 272.6 C 888.005 278.73 898.825 284.72 910.155 288.14 C 924.745 292.54 938.505 288.45 951.685 282.03 C 968.725 273.73 982.695 263.67 997.985 251.35 L 997.505 288.58 C 988.855 299.02 975.075 305.42 962.225 308.88 C 932.725 316.84 903.528 315.924 874.635 306.13 C 865.328 302.977 856.235 296.97 847.355 288.11 C 847.268 276.17 847.282 263.954 847.395 251.46 C 847.402 251.154 847.445 250.974 847.525 250.92 C 847.652 250.847 847.858 250.767 848.145 250.68 Z" transform="matrix(1, 0, 0, 1, 5.684341886080802e-14, 0)"/>
  <path fill="#32536e" d="M 847.355 288.11 C 856.235 296.97 865.328 302.977 874.635 306.13 C 903.528 315.924 932.725 316.84 962.225 308.88 C 975.075 305.42 988.855 299.02 997.505 288.58 C 997.565 288.68 997.625 288.767 997.685 288.84 C 997.805 288.994 997.862 289.167 997.855 289.36 C 997.762 295.8 997.765 302.23 997.865 308.65 C 998.245 333.27 1010.655 353.49 1030.065 367.24 C 1032.278 368.807 1034.205 370.18 1035.845 371.36 C 1036.705 371.98 1037.468 371.877 1038.135 371.05 C 1040.868 367.697 1043.348 364.637 1045.575 361.87 C 1049.355 357.17 1057.025 355.22 1061.195 360.1 C 1065.445 365.06 1061.825 370.44 1058.315 374.57 C 1052.588 381.324 1046.625 387.86 1040.425 394.18 C 1011.725 423.45 972.575 440.66 931.645 442.47 C 910.775 443.39 888.845 441.16 869.155 434.02 C 847.135 426.04 827.572 414.227 810.465 398.58 C 802.272 391.08 793.828 382.4 785.135 372.54 C 782.075 369.06 780.095 365.94 782.185 361.69 C 785.535 354.87 794.975 356.6 799.255 361.55 C 802.162 364.904 805.065 368.297 807.965 371.73 C 808.205 372.017 808.624 372.081 808.945 371.88 C 831.775 357.41 846.225 338.02 847.145 310.17 C 847.378 303.084 847.448 295.73 847.355 288.11 Z" transform="matrix(1, 0, 0, 1, 5.684341886080802e-14, 0)"/>
  <path fill="#a1d7e4" d="M 1123.305 393.93 C 1118.652 429.564 1115.345 456.724 1113.385 475.41 C 1111.452 493.83 1110.338 514.024 1110.045 535.99 C 1109.898 536.324 1109.735 536.49 1109.555 536.49 C 1037.002 536.477 964.448 536.504 891.895 536.57 C 839.795 536.63 787.665 536.09 735.565 536.65 C 735.285 536.657 735.009 536.573 734.775 536.41 L 734.435 536.18 C 734.062 522.28 733.542 508.44 732.875 494.66 C 731.725 470.61 728.115 446.75 725.715 422.83 C 724.825 413.9 723.435 404.41 722.455 395.17 C 722.582 393.844 722.938 393.044 723.525 392.77 C 734.915 387.55 746.535 382.91 757.915 377.71 C 760.195 376.67 761.485 378.69 762.635 380.17 C 784.645 408.72 810.295 432.35 841.145 447.12 C 878.265 464.9 921.795 470.22 961.665 461.76 C 964.018 461.26 969.662 459.644 978.595 456.91 C 1005.742 448.61 1029.745 434.85 1050.605 415.63 C 1062.785 404.41 1073.475 391.44 1084.195 378.78 C 1084.857 377.997 1085.949 377.727 1086.905 378.11 C 1097.932 382.484 1108.965 387.03 1120.005 391.75 C 1120.618 392.017 1121.188 392.34 1121.715 392.72 C 1122.328 393.18 1122.858 393.584 1123.305 393.93 Z" transform="matrix(1, 0, 0, 1, 5.684341886080802e-14, 0)"/>
  <path fill="#ffffff" d="M 722.455 395.17 C 723.435 404.41 724.825 413.9 725.715 422.83 C 728.115 446.75 731.725 470.61 732.875 494.66 C 733.542 508.44 734.062 522.28 734.435 536.18 L 709.905 536.04 C 709.858 514.92 708.848 495.627 706.875 478.16 C 704.835 460.134 701.572 435.98 697.085 405.7 L 720.975 394.13 C 721.282 393.984 721.585 393.984 721.885 394.13 C 722.372 394.37 722.562 394.717 722.455 395.17 Z" transform="matrix(1, 0, 0, 1, 5.684341886080802e-14, 0)"/>
  <path fill="#ffffff" d="M 1123.305 393.93 C 1131.032 396.71 1138.422 400.254 1145.475 404.56 C 1146.142 404.967 1147.072 405.72 1148.265 406.82 C 1141.195 449.63 1134.465 493.04 1134.085 536.46 C 1127.145 535.827 1120.068 535.667 1112.855 535.98 C 1112.602 535.987 1112.142 536.06 1111.475 536.2 C 1110.828 536.334 1110.352 536.264 1110.045 535.99 C 1110.338 514.024 1111.452 493.83 1113.385 475.41 C 1115.345 456.724 1118.652 429.564 1123.305 393.93 Z" transform="matrix(1, 0, 0, 1, 5.684341886080802e-14, 0)"/>
  <path fill="#a1d7e4" d="M 697.085 405.7 C 701.572 435.98 704.835 460.134 706.875 478.16 C 708.848 495.627 709.858 514.92 709.905 536.04 C 709.898 536.12 709.785 536.25 709.565 536.43 C 709.319 536.631 709.008 536.74 708.685 536.74 C 671.672 536.307 639.158 536.304 611.145 536.73 C 609.538 536.757 608.695 536.064 608.615 534.65 C 607.385 513.44 610.205 493.45 620.865 474.12 C 633.005 452.13 652.725 433.75 673.535 420.05 C 679.115 416.37 684.305 413.27 690.435 409.3 C 692.522 407.947 694.738 406.747 697.085 405.7 Z" transform="matrix(1, 0, 0, 1, 5.684341886080802e-14, 0)"/>
  <path fill="#a1d7e4" d="M 1148.265 406.82 C 1150.585 407.234 1152.935 408.197 1155.315 409.71 C 1169.905 418.95 1184.105 427.91 1196.855 439.7 C 1224.555 465.3 1240.115 497.27 1235.445 535.89 C 1235.425 536.085 1235.256 536.232 1235.055 536.23 L 1134.085 536.46 C 1134.465 493.04 1141.195 449.63 1148.265 406.82 Z" transform="matrix(1, 0, 0, 1, 5.684341886080802e-14, 0)"/>
</svg>